<svg xmlns="http://www.w3.org/2000/svg" width="26.102" height="25" viewBox="0 0 26.102 25">
  <g id="login-icon" transform="translate(-3 -5)">
    <g id="Group_27679" data-name="Group 27679" transform="translate(3 5)">
      <path id="Path_21323" data-name="Path 21323" d="M303.974,275.049H303.7v-1.632a2.717,2.717,0,1,0-5.434,0v1.632H298a1.908,1.908,0,0,0-1.9,1.9v3.8a1.9,1.9,0,0,0,1.9,1.9h5.981a1.9,1.9,0,0,0,1.9-1.9v-3.8A1.915,1.915,0,0,0,303.974,275.049Zm-4.08-1.632a1.085,1.085,0,1,1,2.17,0v1.632h-2.17v-1.632Z" transform="translate(-279.781 -257.653)" fill="#fff"/>
      <path id="Path_21324" data-name="Path 21324" d="M110.779,276.95a3.546,3.546,0,0,1,2.17-3.264v-.269a4.369,4.369,0,0,1,.424-1.844,5.12,5.12,0,0,0-2.872-.873h-9.236a5.171,5.171,0,0,0-5.165,5.165v3.8a.818.818,0,0,0,.816.816h13.863Z" transform="translate(-96.1 -257.653)" fill="#fff"/>
      <path id="Path_21325" data-name="Path 21325" d="M160.268,116.234a5.434,5.434,0,1,1-5.434-5.434A5.432,5.432,0,0,1,160.268,116.234Z" transform="translate(-145.051 -110.8)" fill="#fff"/>
    </g>
  </g>
</svg>