<svg id="Group_26004" data-name="Group 26004" xmlns="http://www.w3.org/2000/svg" width="22.845" height="21.861" viewBox="0 0 22.845 21.861">
  <g id="money_5">
    <g id="Group_26003" data-name="Group 26003">
      <path id="Path_21314" data-name="Path 21314" d="M22.845,17.823a2.224,2.224,0,0,0-2.213-2.213h-.143a4.313,4.313,0,0,0,.357-1.713c0-1.5-1.856-4.855-3.141-6a9.891,9.891,0,0,1-2.142.214A11.084,11.084,0,0,1,13.35,7.9c-1.214,1-3.355,4.5-3.355,6a2.2,2.2,0,0,0,.071.714c-.357,0-.714-.071-1.142-.071a12.506,12.506,0,0,0-2.856.286,1.235,1.235,0,0,0-.071-.5H.286a40.2,40.2,0,0,0,0,9.566H6.14a12.117,12.117,0,0,0,.071-1.356A3.906,3.906,0,0,1,9,23.249a8.438,8.438,0,0,0,4.64,1.356A7.568,7.568,0,0,0,18.2,23.177h0l.071-.071a5.757,5.757,0,0,0,1-.857,14.69,14.69,0,0,1,1.071-1.071,16.238,16.238,0,0,0,1.928-2h0A1.718,1.718,0,0,0,22.845,17.823Zm-1.356.857c-.286.286-1.571,1.571-1.856,1.928l-1.5,1.5h0c-.143.143-.286.214-.428.357a7.191,7.191,0,0,1-4.069,1.214,7.026,7.026,0,0,1-4.069-1.214h0a5.418,5.418,0,0,0-3.284-.857c.071-.785.071-1.642.071-2.356,0-1-.071-2.284-.143-3.284A11.5,11.5,0,0,1,9,15.682a10.527,10.527,0,0,1,7.139,2.5,1.074,1.074,0,0,1,.286.785,1.2,1.2,0,0,1-1.214,1.214h-.071a9.589,9.589,0,0,1-3.141-.928l-.357.857a11.51,11.51,0,0,0,3.641.928h0a2.228,2.228,0,0,0,2.142-1.571h0a18.434,18.434,0,0,1,2.356-2.427h0c.143-.143.286-.214.357-.286a1.106,1.106,0,0,1,.571-.143,1.2,1.2,0,0,1,1.214,1.214A1.946,1.946,0,0,1,21.488,18.68Z" transform="translate(0 -2.745)" fill="#fff"/>
      <path id="Path_21315" data-name="Path 21315" d="M18.572,5.12a10.94,10.94,0,0,0,2,.214,8.336,8.336,0,0,0,1.642-.143c.571-.286,1.856-3.213,1.071-4.212C22.427-.163,21.07,2.336,20.428,2.05S18.429.48,17.5.979C16.716,1.479,18,4.62,18.572,5.12Z" transform="translate(-4.936 -0.679)" fill="#fff"/>
    </g>
  </g>
</svg>